<svg width="28" height="28" viewBox="0 0 28 28" fill="none" xmlns="http://www.w3.org/2000/svg">
<path d="M17.0156 14.2656V11.4844C17.0156 10.8558 17.5277 10.3438 18.1562 10.3438H21.4375H21.9375V9.84375V6.5625V6.0625H21.4375H17.3359C14.7982 6.0625 12.7344 8.12629 12.7344 10.6641V14.2656H9.95312H9.45312V14.7656V18.0469V18.5469H9.95312H12.7344V27.5H4.10156C2.11608 27.5 0.5 25.8839 0.5 23.8984V4.10156C0.5 2.11608 2.11608 0.5 4.10156 0.5H23.8984C25.8839 0.5 27.5 2.11608 27.5 4.10156V23.8984C27.5 25.8839 25.8839 27.5 23.8984 27.5H17.0156V18.5469H20.7426H21.1661L21.2358 18.1291L21.7827 14.8478L21.8797 14.2656H21.2895H17.0156ZM22.556 20.1875L22.6256 19.7697L23.7194 13.2072L23.8164 12.625H23.2262H18.6562V11.9844H23.0781H23.5781V11.4844V4.92188V4.42188H23.0781H17.3359C13.8935 4.42188 11.0938 7.2216 11.0938 10.6641V12.625H8.3125H7.8125V13.125V19.6875V20.1875H8.3125H11.0938V25.8594H4.10156C3.02077 25.8594 2.14062 24.9792 2.14062 23.8984V4.10156C2.14062 3.02077 3.02077 2.14062 4.10156 2.14062H23.8984C24.9792 2.14062 25.8594 3.02077 25.8594 4.10156V23.8984C25.8594 24.9792 24.9792 25.8594 23.8984 25.8594H18.6562V20.1875H22.1324H22.556ZM17.6562 26.3594V26.8594H18.1562H23.8984C25.5315 26.8594 26.8594 25.5315 26.8594 23.8984V4.10156C26.8594 2.46849 25.5315 1.14062 23.8984 1.14062H4.10156C2.46849 1.14062 1.14062 2.46849 1.14062 4.10156V23.8984C1.14062 25.5315 2.46849 26.8594 4.10156 26.8594H11.5938H12.0938V26.3594V19.6875V19.1875H11.5938H8.8125V13.625H11.5938H12.0938V13.125V10.6641C12.0938 7.77388 14.4458 5.42188 17.3359 5.42188H22.5781V10.9844H18.1562H17.6562V11.4844V13.125V13.625H18.1562H22.6359L21.7089 19.1875H18.1562H17.6562V19.6875V26.3594Z" fill="#0F8012" stroke="#0F8012"/>
</svg>
