<svg width="981" height="680" viewBox="0 0 981 680" fill="none" xmlns="http://www.w3.org/2000/svg">
<g filter="url(#filter0_d)">
<path d="M280.713 662.532C120.924 646.693 -7.10112 549.634 15.6223 312.249C15.8157 310.173 19.6352 285.353 28.4345 263.043C79.7314 132.81 201.036 158.451 263.259 150.58C315.668 143.916 328.529 111.756 459.213 55.8387C543.048 19.9605 1049.78 -40.3515 956.614 310.463C950.523 333.448 946.075 353.729 949.556 371.257C992.73 588.506 829.75 656.061 669.961 656.013L280.713 662.532Z" fill="#E7E6F4"/>
</g>
<g filter="url(#filter1_d)">
<path d="M654.954 194.899H264.046C244.134 194.899 228 209.87 228 228.316V407.697C228 426.143 244.134 441.114 264.046 441.114H494.457L557.216 548.716V441.114H654.954C674.866 441.114 691 426.143 691 407.697V228.36C691 209.87 674.866 194.899 654.954 194.899Z" fill="#F5F5FE"/>
</g>
<path d="M352.292 159.736C345.775 171.063 337.569 175.45 337.569 175.45H303.489C303.537 175.402 357.264 151.06 352.292 159.736Z" fill="#354669"/>
<path d="M326.128 247.319C325.259 248.332 325.115 249.488 325.549 250.693C326.37 252.959 329.025 255.465 332.162 257.924C332.548 258.261 332.935 258.55 333.224 258.791C333.321 258.84 333.369 258.936 333.466 258.984C333.514 259.032 333.61 259.081 333.659 259.129C336.555 261.828 335.493 262.407 340.706 267.853C346.644 274.023 350.747 274.168 351.954 273.59C352.919 273.107 350.94 269.83 348.72 266.118C348.623 265.925 348.526 265.781 348.382 265.588C348.092 265.106 347.802 264.576 347.513 264.094C344.906 259.659 345.582 257.586 346.209 250.934C346.692 245.584 354.56 220.904 354.56 220.904L343.12 218.928C343.12 218.928 339.693 238.546 335.879 241.583C333.852 243.174 331.583 243.222 329.652 244.427C329.507 244.524 329.362 244.572 329.266 244.668C328.156 245.536 327.045 246.307 326.128 247.319Z" fill="#FFB27D"/>
<path d="M326.128 247.319C325.259 248.332 325.115 249.488 325.549 250.693C326.563 252.911 329.169 255.417 332.162 257.924C332.548 258.261 332.886 258.55 333.224 258.84C333.321 258.888 333.369 258.984 333.466 259.032C333.514 259.081 333.61 259.129 333.659 259.177C336.555 261.876 335.493 262.455 340.706 267.902C346.644 274.072 350.747 274.216 351.954 273.638C352.919 273.156 350.94 269.878 348.72 266.166C347.561 265.733 342.155 263.563 338.1 258.358C334.528 253.778 332.114 247.898 329.652 244.524C329.507 244.62 329.362 244.668 329.266 244.765C328.156 245.536 327.045 246.307 326.128 247.319Z" fill="#354669"/>
<path d="M418.231 240.185C418.955 243.704 423.975 243.126 429.575 241.728C435.175 240.378 433.871 241.969 441.836 241.101C449.849 240.234 452.263 237.245 452.504 236.04C452.745 234.98 448.787 234.594 444.539 234.112C444.008 234.064 443.477 233.967 442.946 233.919C438.167 233.341 434.644 230.256 430.299 227.701C426.196 225.291 420.065 215.554 420.065 215.554L409.108 216.422C409.108 216.422 414.852 225.146 417.073 228.954C418.376 231.172 418.328 234.112 418.135 236.426C418.038 237.679 417.99 238.932 418.231 240.185Z" fill="#FFB27D"/>
<path d="M429.575 241.728C435.175 240.378 433.871 241.969 441.836 241.101C449.849 240.234 452.263 237.245 452.504 236.04C452.745 234.98 448.787 234.594 444.539 234.112L444.491 234.208C444.491 234.208 439.712 237.582 433.051 237.775C427.644 237.92 421.9 236.377 418.135 236.426C418.038 237.679 417.99 238.932 418.231 240.185C418.907 243.704 423.975 243.126 429.575 241.728Z" fill="#354669"/>
<path d="M376.235 170.244L366.001 197.767L352.63 233.726C352.63 233.726 349.009 234.064 345.534 233.1C342.348 232.184 338.679 229.774 338.679 229.774C338.679 229.774 342.396 191.164 349.299 169.039C351.085 163.351 353.064 158.772 355.236 156.169C365.953 143.395 376.235 170.244 376.235 170.244Z" fill="#354669"/>
<path d="M365.808 126.525C359.098 124.355 339.934 127.151 320.722 130.911L316.715 124.259L275.201 121.03C275.201 121.03 261.492 151.397 269.023 170.726C270.133 173.57 272.836 174.775 276.601 174.823C276.601 174.823 301.365 175.45 309.426 175.45C330.087 175.45 353.161 161.278 356.105 160.7C360.981 159.736 362.96 169.473 367.835 179.692C372.711 189.91 413.742 225.05 413.742 225.05C413.742 225.05 420.065 225.098 422.672 224.134C425.472 223.074 426.486 221.724 426.486 221.724C426.486 221.724 380.965 131.393 365.808 126.525Z" fill="#4F659B"/>
<path d="M312.275 2.45213C309.186 0.620443 306.144 0.331235 304.31 0.379437C303.007 0.427639 301.655 0.283033 300.352 0.138426C284.615 -1.98247 275.154 20.8654 274.575 27.7583C273.561 40.5319 266.803 42.46 257.293 50.4615C238.226 66.4646 243.825 85.0707 254.252 92.0118C260.528 96.1572 271.534 92.0118 271.534 92.0118C271.678 92.1082 301.703 75.2857 316.475 67.1395C338.631 64.0063 321.205 7.75437 312.275 2.45213Z" fill="#4F659B"/>
<path d="M304.068 60.1984C304.116 60.2466 296.779 62.7531 291.904 60.584C287.269 58.5595 283.794 50.9435 283.842 50.9435C285.966 50.8471 288.235 49.0154 290.021 36.9649L290.938 37.3023L305.999 42.701C305.999 42.701 304.889 47.5212 304.213 52.1004C303.585 55.9566 303.247 59.6681 304.068 60.1984Z" fill="#FFB27D"/>
<path d="M305.951 42.701C305.951 42.701 304.84 47.5212 304.165 52.1004C295.524 50.5579 292.145 41.9297 290.938 37.3023L305.951 42.701Z" fill="#ED975D"/>
<path d="M308.171 47.5212C308.171 47.5212 287.607 44.7737 289.49 32.0001C291.421 19.2265 290.021 10.2609 303.247 11.5141C316.474 12.7674 318.26 17.9732 318.694 22.4078C319.129 26.7942 313.578 47.9068 308.171 47.5212Z" fill="#FFB27D"/>
<path d="M317.97 15.3703C317.97 15.3703 304.792 26.6978 295.814 27.6137C286.835 28.5295 283.456 25.6374 283.456 25.6374C283.456 25.6374 288.718 21.251 291.903 14.2135C292.821 12.1408 294.8 10.6947 297.117 10.5019C303.537 9.92348 315.702 9.68248 317.97 15.3703Z" fill="#4F659B"/>
<path d="M309.764 14.3581C309.764 14.3581 314.157 18.5999 315.557 21.7812C316.908 24.8179 317.295 32.0965 316.233 34.9886C316.233 34.9886 323.087 21.6366 319.225 15.1775C315.074 8.28461 309.764 14.3581 309.764 14.3581Z" fill="#4F659B"/>
<path d="M321.398 90.4693C320.77 132.068 321.205 123.391 316.667 127.344C315.557 128.308 312.467 128.838 308.413 129.128C295.62 129.995 273.174 127.874 272.353 125.512C269.409 117.366 271.485 114.811 269.023 102.327C268.781 100.977 268.443 99.5795 268.057 97.9889C266.03 89.4089 264.002 86.5168 271.291 72.7309C277.905 60.2466 284.759 50.1241 285.339 50.4615C302.716 60.7768 304.116 52.1004 304.116 52.1004C304.116 52.1004 321.687 70.1762 321.398 90.4693Z" fill="#F9DDBF"/>
<path d="M366.001 197.767L352.63 233.726C352.63 233.726 349.009 234.064 345.534 233.1C342.348 232.184 338.679 229.774 338.679 229.774C338.679 229.774 342.396 191.164 349.299 169.039L366.001 197.767Z" fill="#4F659B"/>
<path d="M304.165 52.1486C304.165 52.1486 322.073 55.1853 324.149 62.8977C326.273 70.61 338.631 115.824 338.631 115.824C338.631 115.824 329.507 117.463 325.308 113.269C321.108 109.075 310.681 74.3216 310.681 74.3216L304.165 52.1486Z" fill="#F9DDBF"/>
<path d="M308.412 129.127C295.62 129.995 273.174 127.874 272.353 125.512C269.409 117.366 271.485 114.811 269.023 102.327L275.201 85.0225C275.201 85.0225 274.188 104.303 279.884 109.365C285.58 114.426 303.199 119.15 305.999 123.391C307.302 125.464 308.171 127.489 308.412 129.127Z" fill="#F2CCAA"/>
<path d="M293.786 121.03C293.786 121.03 306.385 118.234 308.412 119.342C310.44 120.451 315.412 124.548 316.039 125.946C316.667 127.344 311.502 124.886 309.861 124.404C308.799 124.114 305.902 125.127 304.502 125.561C298.565 127.537 294.896 126.525 294.896 126.525L293.786 121.03Z" fill="#FFB27D"/>
<path d="M285.339 50.4615C285.339 50.4615 268.395 51.522 262.554 59.6681C254.3 71.1402 237.936 120.114 247.349 126.621C257.92 133.948 295.379 128.549 295.379 128.549C295.379 128.549 296.634 122.717 294.896 119.921C293.159 117.125 264.968 112.546 263.664 111.244C262.361 109.943 279.932 85.8901 279.932 81.9857C279.932 78.0814 285.339 50.4615 285.339 50.4615Z" fill="#F9DDBF"/>
<path d="M309.04 122.813C309.04 122.813 311.695 126.235 312.564 126.621C313.433 127.007 314.012 126.91 314.012 126.91L312.226 123.729L309.04 122.813Z" fill="#FFB27D"/>
<path d="M308.412 119.342L316.088 123.054C316.088 123.054 315.75 123.584 314.833 123.536C313.867 123.488 311.502 122.62 311.502 122.62L308.412 119.342Z" fill="#FFB27D"/>
<path d="M312.516 131.827H373.29L391.537 86.4685H330.907L312.516 131.827Z" fill="#F99746"/>
<path d="M373.966 130.092H293.786V131.828H373.29L373.966 130.092Z" fill="#ED7D2B"/>
<path d="M357.939 109.172C358.374 107.581 357.457 106.28 355.864 106.28C354.271 106.28 352.581 107.581 352.147 109.172C351.712 110.762 352.63 112.064 354.223 112.064C355.816 112.064 357.457 110.762 357.939 109.172Z" fill="white"/>
<path d="M656.712 283.139C658.782 288.696 662.346 295.123 666.102 296.718C670.339 298.554 672.121 301.115 672.121 301.115L675.54 299.134L679.633 296.766C679.633 296.766 679.537 296.331 679.345 295.558C679.152 294.833 678.863 293.77 678.43 292.659C678.43 292.659 677.177 291.016 677.948 288.986C678.718 286.957 678.574 283.816 677.274 281.883C675.974 279.95 674.673 275.263 673.903 275.408C671.977 275.746 674.866 282.221 674.047 283.429C673.325 284.54 672.362 284.154 672.218 284.057C672.218 284.057 672.217 284.057 672.169 284.057C666.776 281.689 660.275 268.932 657.386 270.624C656.278 271.252 655.845 280.771 656.712 283.139Z" fill="#FFB27D"/>
<path d="M771.803 255.547C771.803 255.547 737.564 315.467 725.14 326.484L679.633 292.417C679.633 292.417 673.036 294.446 670.147 301.115C670.147 301.115 697.788 357.652 724.996 360.02C752.203 362.436 790.439 292.272 790.439 292.272L771.803 255.547Z" fill="#718CCC"/>
<path d="M849.236 663H869.028C871.532 661.647 873.747 658.554 874.421 653.915C875.384 647.537 882.511 644.058 884.052 638.791C885.593 633.572 877.696 626.227 877.696 626.227L876.396 624.536L874.999 622.748L861.853 625.84C861.853 625.84 861.516 628.981 861.323 632.992C861.179 635.891 861.082 639.225 861.275 642.125C861.66 649.083 859.349 656.621 853.137 657.974C848.61 658.941 848.851 661.647 849.236 663Z" fill="#354669"/>
<path d="M734.482 663H779.7C781.867 660.342 781.097 650.485 780.759 647.295C780.711 646.667 780.663 646.28 780.663 646.28C780.663 646.28 765.205 633.862 763.086 643.381C763.038 643.671 762.942 643.961 762.846 644.251C760.197 653.142 748.206 657.153 741.272 658.264C736.745 658.989 735.108 661.357 734.482 663Z" fill="#354669"/>
<path d="M743.102 409.695C743.102 409.695 745.462 439.075 748.207 474.35C751.963 522.286 756.441 581.191 756.923 592.305C757.693 611.682 760.775 642.656 760.775 642.656C760.775 642.656 768.095 650.001 782.782 646.909C782.782 646.909 795.832 602.694 799.588 555.87C799.636 555.097 799.684 554.323 799.781 553.55C803.248 505.905 808.641 405.588 808.641 405.588L743.102 409.695Z" fill="#4F659B"/>
<path d="M743.102 409.695C743.102 409.695 745.462 439.075 748.207 474.35L799.588 555.918C799.636 555.145 799.684 554.372 799.781 553.599C803.248 505.953 808.641 405.636 808.641 405.636L743.102 409.695Z" fill="#354669"/>
<path d="M753.792 413.174C753.792 413.174 796.073 519.483 823.858 569.448C851.644 619.413 860.312 633.378 860.312 633.378C860.312 633.378 876.251 627 877.696 622.651C877.696 622.651 867.054 526.2 848.466 502.667C837.968 489.378 825.592 449.512 825.014 435.547C824.436 421.582 821.258 393.99 821.258 393.99L753.792 413.174Z" fill="#4F659B"/>
<path d="M764.339 258.157C780.856 263.375 809.412 249.265 809.412 249.265C809.412 249.265 794.195 237.813 794.965 213.942L782.204 224.283L773.536 231.289C773.536 231.289 773.584 235.445 774.499 242.693C774.74 244.578 775.077 246.704 775.462 249.024C768.384 252.938 764.339 258.157 764.339 258.157Z" fill="#FFB27D"/>
<path d="M773.536 231.289C773.536 231.289 773.584 235.445 774.499 242.693C784.13 241.051 795.013 225.442 795.013 225.442C790.102 224.041 785.816 223.751 782.204 224.283L773.536 231.289Z" fill="#ED975D"/>
<path d="M768.48 230.903C768.48 230.903 795.784 235.445 798.336 218.339C800.888 201.233 806.137 190.312 788.85 186.688C771.562 183.064 767.18 189.056 764.916 194.564C762.701 200.122 761.449 229.308 768.48 230.903Z" fill="#FFB27D"/>
<path d="M741.272 412.111C741.754 412.546 742.332 412.788 743.006 412.788C749.218 412.691 767.276 416.17 782.589 414.576C795.495 413.319 806.908 409.502 819.187 403.993C820.825 403.268 824.581 401.239 824.485 399.402C824.436 397.421 824.244 394.522 824.003 390.849C823.136 378.141 821.643 356.299 823.088 331.075C823.377 326.388 823.473 321.749 823.521 317.158C823.666 282.994 816.876 252.938 803.344 242.79C802.189 241.969 795.062 245.448 788.561 248.685C782.541 251.681 776.474 252.02 770.791 250.86L765.109 255.934C758.175 262.409 750.566 271.204 747.243 284.589C744.45 295.945 742.765 316.481 741.85 337.695C741.417 347.311 741.128 357.024 741.031 366.253V366.592C740.935 367.51 740.935 368.524 740.935 369.394C740.55 393.024 740.887 411.773 741.272 412.111Z" fill="#718CCC"/>
<path d="M824.003 390.849C823.136 378.141 821.643 356.299 823.088 331.075C823.377 326.388 823.473 321.749 823.521 317.158C817.887 303.386 813.264 293.432 813.264 293.432H799.01C799.01 293.48 788.561 365.045 824.003 390.849Z" fill="#718CCC"/>
<path d="M860.36 378.624C860.36 378.624 859.108 385.292 859.686 387.37C863.442 401.335 868.932 400.465 858.964 415.155C858.964 415.155 854.485 420.809 852.607 415.59C850.729 410.323 854.485 408.052 851.307 401.045C847.599 392.927 847.695 392.831 850.536 385.824L851.355 377.996L860.36 378.624Z" fill="#FFB27D"/>
<path d="M858.867 396.6C853.763 397.614 848.177 397.18 848.177 397.18C848.177 397.18 832.96 349.969 830.985 345.668C829.011 341.367 785.768 290.339 785.768 290.339L803.778 245.061C803.778 245.061 850.585 323.488 855.304 334.506C863.153 352.723 865.898 393.555 865.898 393.555C865.898 393.555 862.864 395.827 858.867 396.6Z" fill="#718CCC"/>
<path d="M798.384 216.744C798.384 216.744 795.591 216.261 796.025 212.395C796.458 208.53 796.458 203.456 793.328 204.422C790.198 205.389 790.053 207.901 788.753 206.403C787.453 204.954 787.453 198.72 778.111 198.285C768.769 197.85 765.013 201.136 760.63 199.203C756.296 197.271 756.056 190.699 756.056 190.699C756.056 190.699 757.308 193.066 759.138 193.791C759.138 193.791 751.914 183.837 760.293 177.023C768.672 170.21 777.196 174.656 782.059 174.946C792.75 175.574 799.636 176.25 803.152 183.305C806.667 190.409 805.222 209.931 798.384 216.744Z" fill="#4F659B"/>
<path d="M852.414 397.469C852.414 397.469 852.222 401.528 851.403 402.35C848.851 405.104 848.514 407.182 847.743 406.892C846.106 406.312 847.021 403.123 848.369 400.852C849.718 398.581 852.414 397.469 852.414 397.469Z" fill="#FFB27D"/>
<path d="M684.997 290.066L672.475 295.431C672.04 295.624 671.556 295.431 671.411 294.996L661.161 271.121C660.968 270.686 661.161 270.203 661.596 270.058L674.119 264.693C674.554 264.5 675.037 264.693 675.182 265.128L685.432 289.003C685.625 289.39 685.432 289.873 684.997 290.066Z" fill="#F1A34F"/>
<path d="M681.757 291.42L670.396 296.301C669.67 296.64 668.8 296.253 668.51 295.528L658.792 272.813C658.454 272.088 658.841 271.219 659.566 270.929L670.928 266.047C671.653 265.709 672.523 266.096 672.813 266.821L682.531 289.535C682.821 290.26 682.483 291.13 681.757 291.42Z" fill="#D86713"/>
<path d="M379.876 336.825C379.597 336.825 379.369 336.737 379.192 336.56C379.04 336.382 378.964 336.154 378.964 335.876V311.189C378.964 310.91 379.053 310.682 379.23 310.505C379.407 310.328 379.635 310.239 379.914 310.239H383.334C383.613 310.239 383.828 310.328 383.98 310.505C384.157 310.682 384.246 310.91 384.246 311.189V328.622L396.748 310.847C397.027 310.442 397.394 310.239 397.85 310.239H401.004C401.283 310.239 401.498 310.328 401.65 310.505C401.827 310.682 401.916 310.91 401.916 311.189V335.914C401.916 336.167 401.827 336.382 401.65 336.56C401.498 336.737 401.283 336.825 401.004 336.825H397.584C397.305 336.825 397.077 336.749 396.9 336.598C396.723 336.42 396.634 336.192 396.634 335.914V318.823L384.17 336.218C384.018 336.42 383.866 336.572 383.714 336.673C383.562 336.775 383.347 336.825 383.068 336.825H379.876Z" fill="#718CCC"/>
<path d="M415.929 337.205C413.142 337.205 410.913 336.433 409.241 334.888C407.594 333.344 406.72 331.204 406.619 328.47L406.581 326.951L406.619 325.431C406.72 322.697 407.594 320.557 409.241 319.013C410.913 317.468 413.142 316.696 415.929 316.696C417.905 316.696 419.577 317.05 420.945 317.759C422.338 318.468 423.364 319.342 424.023 320.38C424.707 321.393 425.074 322.355 425.125 323.266C425.15 323.52 425.062 323.735 424.859 323.912C424.682 324.089 424.466 324.178 424.213 324.178H420.869C420.616 324.178 420.413 324.127 420.261 324.026C420.134 323.899 420.008 323.697 419.881 323.418C419.501 322.431 418.994 321.722 418.361 321.291C417.753 320.861 416.968 320.646 416.005 320.646C414.713 320.646 413.7 321.064 412.965 321.899C412.23 322.709 411.838 323.95 411.787 325.621L411.749 327.026L411.787 328.28C411.888 331.597 413.294 333.255 416.005 333.255C416.993 333.255 417.791 333.04 418.399 332.61C419.007 332.179 419.501 331.47 419.881 330.483C420.008 330.204 420.134 330.014 420.261 329.913C420.413 329.786 420.616 329.723 420.869 329.723H424.213C424.466 329.723 424.682 329.812 424.859 329.989C425.062 330.166 425.15 330.381 425.125 330.635C425.074 331.521 424.72 332.47 424.061 333.483C423.402 334.496 422.389 335.369 421.021 336.104C419.653 336.838 417.956 337.205 415.929 337.205Z" fill="#718CCC"/>
<path d="M437.068 337.205C435.092 337.205 433.458 336.901 432.166 336.294C430.899 335.661 429.962 334.888 429.354 333.977C428.746 333.065 428.404 332.128 428.328 331.166V331.052C428.328 330.875 428.404 330.723 428.556 330.597C428.708 330.47 428.873 330.407 429.05 330.407H432.09C432.343 330.407 432.533 330.457 432.66 330.559C432.787 330.66 432.913 330.824 433.04 331.052C433.42 331.939 433.927 332.584 434.56 332.989C435.219 333.369 436.055 333.559 437.068 333.559C438.411 333.559 439.449 333.167 440.184 332.382C440.944 331.597 441.337 330.394 441.362 328.774V328.584H434.94C434.687 328.584 434.484 328.508 434.332 328.356C434.18 328.179 434.104 327.976 434.104 327.748V326.153C434.104 325.925 434.18 325.735 434.332 325.583C434.484 325.406 434.687 325.317 434.94 325.317H441.362V325.089C441.337 323.52 440.944 322.342 440.184 321.557C439.424 320.772 438.385 320.38 437.068 320.38C436.055 320.38 435.219 320.57 434.56 320.95C433.927 321.329 433.42 321.975 433.04 322.887C432.888 323.14 432.749 323.317 432.622 323.418C432.495 323.494 432.305 323.532 432.052 323.532H429.126C428.898 323.532 428.708 323.469 428.556 323.342C428.404 323.19 428.341 323.001 428.366 322.773C428.442 321.811 428.784 320.874 429.392 319.962C430 319.025 430.937 318.253 432.204 317.645C433.496 317.012 435.117 316.696 437.068 316.696C439.981 316.696 442.249 317.455 443.87 318.975C445.517 320.469 446.403 322.583 446.53 325.317C446.581 325.925 446.606 326.469 446.606 326.951C446.606 327.432 446.581 327.976 446.53 328.584C446.403 331.344 445.542 333.47 443.946 334.964C442.35 336.458 440.057 337.205 437.068 337.205Z" fill="#718CCC"/>
<path d="M451.857 336.825C451.604 336.825 451.389 336.737 451.211 336.56C451.034 336.382 450.945 336.167 450.945 335.914V317.987C450.945 317.734 451.034 317.519 451.211 317.341C451.389 317.164 451.604 317.076 451.857 317.076H455.011C455.29 317.076 455.505 317.164 455.657 317.341C455.835 317.493 455.923 317.709 455.923 317.987V324.786H464.511V317.987C464.511 317.709 464.6 317.493 464.777 317.341C464.955 317.164 465.17 317.076 465.423 317.076H468.577C468.856 317.076 469.071 317.164 469.223 317.341C469.401 317.493 469.489 317.709 469.489 317.987V335.914C469.489 336.167 469.401 336.382 469.223 336.56C469.071 336.737 468.856 336.825 468.577 336.825H465.423C465.17 336.825 464.955 336.737 464.777 336.56C464.6 336.382 464.511 336.167 464.511 335.914V328.774H455.923V335.914C455.923 336.167 455.835 336.382 455.657 336.56C455.505 336.737 455.29 336.825 455.011 336.825H451.857Z" fill="#718CCC"/>
<path d="M495.407 317.076C495.61 317.076 495.787 317.152 495.939 317.304C496.117 317.455 496.205 317.62 496.205 317.797V336.028C496.205 336.256 496.129 336.446 495.977 336.598C495.825 336.749 495.623 336.825 495.369 336.825H492.101C491.848 336.825 491.645 336.749 491.493 336.598C491.367 336.446 491.303 336.256 491.303 336.028V325.393L487.237 332.875C487.06 333.179 486.883 333.407 486.705 333.559C486.553 333.711 486.325 333.787 486.021 333.787H484.767C484.489 333.787 484.261 333.711 484.083 333.559C483.906 333.407 483.741 333.179 483.589 332.875L479.523 325.545V336.028C479.523 336.256 479.447 336.446 479.295 336.598C479.143 336.749 478.953 336.825 478.725 336.825H475.457C475.204 336.825 475.001 336.749 474.849 336.598C474.697 336.446 474.621 336.256 474.621 336.028V317.797C474.621 317.62 474.697 317.455 474.849 317.304C475.001 317.152 475.179 317.076 475.381 317.076H478.573C479.004 317.076 479.333 317.291 479.561 317.721L485.413 328.356L491.265 317.721C491.493 317.291 491.823 317.076 492.253 317.076H495.407Z" fill="#718CCC"/>
<path d="M509.852 337.205C507.04 337.205 504.798 336.395 503.126 334.774C501.479 333.129 500.605 330.824 500.504 327.862L500.466 326.913L500.504 325.963C500.631 323.077 501.517 320.81 503.164 319.165C504.836 317.519 507.065 316.696 509.852 316.696C512.841 316.696 515.147 317.607 516.768 319.43C518.415 321.253 519.238 323.684 519.238 326.723V327.52C519.238 327.773 519.149 327.989 518.972 328.166C518.795 328.343 518.567 328.432 518.288 328.432H505.672V328.736C505.723 330.128 506.103 331.306 506.812 332.268C507.547 333.205 508.547 333.673 509.814 333.673C511.309 333.673 512.512 333.091 513.424 331.926C513.652 331.647 513.829 331.47 513.956 331.394C514.108 331.318 514.323 331.28 514.602 331.28H517.87C518.098 331.28 518.288 331.356 518.44 331.508C518.617 331.635 518.706 331.799 518.706 332.002C518.706 332.61 518.339 333.331 517.604 334.167C516.895 334.977 515.869 335.686 514.526 336.294C513.183 336.901 511.625 337.205 509.852 337.205ZM514.07 325.241V325.127C514.07 323.634 513.69 322.431 512.93 321.519C512.195 320.608 511.169 320.152 509.852 320.152C508.535 320.152 507.509 320.608 506.774 321.519C506.039 322.431 505.672 323.634 505.672 325.127V325.241H514.07Z" fill="#718CCC"/>
<path d="M530.872 337.205C528.845 337.205 527.198 336.914 525.932 336.332C524.69 335.724 523.778 334.99 523.196 334.129C522.638 333.268 522.334 332.42 522.284 331.584V331.47C522.284 331.293 522.347 331.154 522.474 331.052C522.626 330.926 522.79 330.862 522.968 330.862H526.084C526.337 330.862 526.527 330.913 526.654 331.014C526.806 331.116 526.932 331.28 527.034 331.508C527.287 332.242 527.743 332.774 528.402 333.103C529.086 333.407 529.972 333.559 531.062 333.559C532.176 333.559 533.063 333.344 533.722 332.913C534.38 332.483 534.71 331.825 534.71 330.938C534.71 329.217 533.684 328.356 531.632 328.356H529.542C529.288 328.356 529.086 328.28 528.934 328.128C528.782 327.976 528.706 327.773 528.706 327.52V325.925C528.706 325.697 528.782 325.507 528.934 325.355C529.086 325.178 529.288 325.089 529.542 325.089H531.48C532.392 325.089 533.076 324.925 533.532 324.596C533.988 324.241 534.216 323.697 534.216 322.963C534.216 322.228 533.95 321.621 533.418 321.14C532.886 320.633 532.024 320.38 530.834 320.38C529.694 320.38 528.87 320.557 528.364 320.912C527.857 321.266 527.464 321.848 527.186 322.659C527.059 322.887 526.92 323.051 526.768 323.152C526.641 323.254 526.451 323.304 526.198 323.304H523.196C522.993 323.304 522.816 323.241 522.664 323.114C522.512 322.963 522.448 322.785 522.474 322.583C522.524 321.57 522.841 320.62 523.424 319.734C524.032 318.848 524.956 318.126 526.198 317.569C527.439 316.987 528.997 316.696 530.872 316.696C533.658 316.696 535.71 317.24 537.028 318.329C538.37 319.418 539.042 320.734 539.042 322.279C539.042 323.266 538.852 324.089 538.472 324.748C538.117 325.406 537.509 325.95 536.648 326.381C538.674 327.166 539.688 328.824 539.688 331.356C539.688 333.179 538.877 334.61 537.256 335.648C535.66 336.686 533.532 337.205 530.872 337.205Z" fill="#718CCC"/>
<path d="M544.634 329.457C544.38 329.457 544.165 329.369 543.988 329.191C543.81 329.014 543.722 328.799 543.722 328.546V311.151C543.722 310.897 543.81 310.682 543.988 310.505C544.165 310.328 544.38 310.239 544.634 310.239H547.712C547.99 310.239 548.206 310.328 548.358 310.505C548.535 310.657 548.624 310.872 548.624 311.151V328.546C548.624 328.799 548.535 329.014 548.358 329.191C548.206 329.369 547.99 329.457 547.712 329.457H544.634ZM544.406 336.825C544.152 336.825 543.937 336.737 543.76 336.56C543.582 336.382 543.494 336.167 543.494 335.914V332.382C543.494 332.103 543.582 331.875 543.76 331.698C543.937 331.521 544.152 331.432 544.406 331.432H547.94C548.218 331.432 548.446 331.521 548.624 331.698C548.801 331.875 548.89 332.103 548.89 332.382V335.914C548.89 336.167 548.801 336.382 548.624 336.56C548.446 336.737 548.218 336.825 547.94 336.825H544.406Z" fill="#718CCC"/>
<defs>
<filter id="filter0_d" x="0" y="18.861" width="981" height="660.671" filterUnits="userSpaceOnUse" color-interpolation-filters="sRGB">
<feFlood flood-opacity="0" result="BackgroundImageFix"/>
<feColorMatrix in="SourceAlpha" type="matrix" values="0 0 0 0 0 0 0 0 0 0 0 0 0 0 0 0 0 0 127 0"/>
<feOffset dy="4"/>
<feGaussianBlur stdDeviation="6.5"/>
<feColorMatrix type="matrix" values="0 0 0 0 0 0 0 0 0 0 0 0 0 0 0 0 0 0 0.02 0"/>
<feBlend mode="normal" in2="BackgroundImageFix" result="effect1_dropShadow"/>
<feBlend mode="normal" in="SourceGraphic" in2="effect1_dropShadow" result="shape"/>
</filter>
<filter id="filter1_d" x="215" y="185.899" width="489" height="379.817" filterUnits="userSpaceOnUse" color-interpolation-filters="sRGB">
<feFlood flood-opacity="0" result="BackgroundImageFix"/>
<feColorMatrix in="SourceAlpha" type="matrix" values="0 0 0 0 0 0 0 0 0 0 0 0 0 0 0 0 0 0 127 0"/>
<feOffset dy="4"/>
<feGaussianBlur stdDeviation="6.5"/>
<feColorMatrix type="matrix" values="0 0 0 0 0 0 0 0 0 0 0 0 0 0 0 0 0 0 0.03 0"/>
<feBlend mode="normal" in2="BackgroundImageFix" result="effect1_dropShadow"/>
<feBlend mode="normal" in="SourceGraphic" in2="effect1_dropShadow" result="shape"/>
</filter>
</defs>
</svg>
