<svg width="61" height="131" viewBox="0 0 61 131" fill="none" xmlns="http://www.w3.org/2000/svg">
<path d="M0.123028 29.3925C0.676904 30.8789 1.63009 32.598 2.63479 33.0246C3.7683 33.5157 4.2449 34.2008 4.2449 34.2008L5.15942 33.6708L6.25429 33.0375C6.25429 33.0375 6.22854 32.9212 6.17702 32.7144C6.1255 32.5205 6.04819 32.2361 5.93227 31.9388C5.93227 31.9388 5.59736 31.4994 5.80346 30.9565C6.00955 30.4136 5.97092 29.5735 5.62314 29.0565C5.27536 28.5394 4.92757 27.2857 4.72148 27.3244C4.20625 27.4149 4.9791 29.1469 4.76013 29.4701C4.56692 29.7674 4.30929 29.664 4.27065 29.6381C4.27065 29.6381 4.27064 29.6381 4.25776 29.6381C2.8151 29.0048 1.0762 25.5924 0.303347 26.0448C0.00708785 26.2129 -0.108827 28.7592 0.123028 29.3925Z" fill="#FFB27D"/>
<path d="M30.9082 22.0122C30.9082 22.0122 21.7499 38.0398 18.4267 40.9868L6.25431 31.8744C6.25431 31.8744 4.48965 32.4172 3.7168 34.2009C3.7168 34.2009 11.1104 49.3238 18.388 49.9571C25.6657 50.6034 35.8931 31.8356 35.8931 31.8356L30.9082 22.0122Z" fill="#718CCC"/>
<path d="M51.6206 131H56.9146C57.5844 130.638 58.1769 129.811 58.3573 128.57C58.6149 126.864 60.5212 125.933 60.9334 124.524C61.3456 123.128 59.2332 121.164 59.2332 121.164L58.8854 120.711L58.5118 120.233L54.9954 121.06C54.9954 121.06 54.9052 121.9 54.8537 122.973C54.8151 123.749 54.7893 124.641 54.8408 125.416C54.9439 127.277 54.3256 129.294 52.664 129.656C51.4532 129.914 51.5176 130.638 51.6206 131Z" fill="#354669"/>
<path d="M20.9257 131H33.0208C33.6004 130.289 33.3943 127.652 33.3041 126.799C33.2912 126.631 33.2784 126.528 33.2784 126.528C33.2784 126.528 29.1436 123.206 28.5769 125.752C28.564 125.83 28.5382 125.907 28.5125 125.985C27.804 128.363 24.5967 129.436 22.7418 129.733C21.531 129.927 21.0931 130.561 20.9257 131Z" fill="#354669"/>
<path d="M23.2313 63.2445C23.2313 63.2445 23.8625 71.1032 24.5967 80.5388C25.6014 93.3609 26.7993 109.117 26.9281 112.09C27.1342 117.273 27.9586 125.558 27.9586 125.558C27.9586 125.558 29.9164 127.523 33.8451 126.696C33.8451 126.696 37.3358 114.869 38.3405 102.344C38.3534 102.137 38.3662 101.931 38.392 101.724C39.3194 88.9792 40.7621 62.1459 40.7621 62.1459L23.2313 63.2445Z" fill="#4F659B"/>
<path d="M23.2313 63.2446C23.2313 63.2446 23.8625 71.1033 24.5967 80.5389L38.3405 102.357C38.3534 102.15 38.3662 101.943 38.392 101.737C39.3194 88.9921 40.7621 62.1588 40.7621 62.1588L23.2313 63.2446Z" fill="#354669"/>
<path d="M26.0909 64.1752C26.0909 64.1752 37.4003 92.6113 44.8325 105.976C52.2648 119.341 54.5833 123.077 54.5833 123.077C54.5833 123.077 58.8469 121.37 59.2333 120.207C59.2333 120.207 56.3866 94.4079 51.4146 88.1132C48.6066 84.5587 45.2963 73.8952 45.1417 70.1597C44.9871 66.4243 44.137 59.0438 44.137 59.0438L26.0909 64.1752Z" fill="#4F659B"/>
<path d="M28.9116 22.7101C33.3297 24.1061 40.968 20.3318 40.968 20.3318C40.968 20.3318 36.8977 17.2685 37.1038 10.8833L33.6904 13.6494L31.3718 15.5236C31.3718 15.5236 31.3847 16.6351 31.6294 18.574C31.6939 19.0781 31.784 19.6468 31.8871 20.2672C29.9936 21.3142 28.9116 22.7101 28.9116 22.7101Z" fill="#FFB27D"/>
<path d="M31.3718 15.5237C31.3718 15.5237 31.3847 16.6352 31.6294 18.5741C34.2056 18.1346 37.1167 13.9597 37.1167 13.9597C35.8028 13.5848 34.6564 13.5073 33.6904 13.6495L31.3718 15.5237Z" fill="#ED975D"/>
<path d="M30.0194 15.4201C30.0194 15.4201 37.3228 16.6351 38.0055 12.0595C38.6881 7.4839 40.0922 4.56274 35.4679 3.59332C30.8437 2.62391 29.6716 4.22668 29.0662 5.70019C28.4737 7.18662 28.1388 14.9936 30.0194 15.4201Z" fill="#FFB27D"/>
<path d="M22.7417 63.8908C22.8706 64.0071 23.0251 64.0717 23.2055 64.0717C24.8671 64.0459 29.6974 64.9765 33.7935 64.55C37.2456 64.2139 40.2983 63.1928 43.583 61.7193C44.0209 61.5254 45.0256 60.9826 44.9998 60.4914C44.987 59.9614 44.9354 59.1859 44.871 58.2036C44.6392 54.8042 44.2399 48.9619 44.6263 42.2148C44.7036 40.961 44.7293 39.7201 44.7422 38.4922C44.7809 29.3539 42.9647 21.3142 39.3452 18.5999C39.036 18.3802 37.1296 19.3108 35.3907 20.1768C33.7806 20.9782 32.1576 21.0687 30.6377 20.7584L29.1178 22.1156C27.2629 23.8476 25.2278 26.2001 24.339 29.7804C23.5919 32.8179 23.141 38.3112 22.8963 43.9855C22.7804 46.5577 22.7031 49.1557 22.6773 51.6245V51.715C22.6516 51.9606 22.6516 52.232 22.6516 52.4647C22.5485 58.7852 22.6387 63.8003 22.7417 63.8908Z" fill="#718CCC"/>
<path d="M44.871 58.2036C44.6392 54.8042 44.2399 48.9619 44.6263 42.2148C44.7036 40.9611 44.7293 39.7202 44.7422 38.4923C43.2352 34.8085 41.9986 32.1459 41.9986 32.1459H38.1859C38.1859 32.1588 35.3907 51.3014 44.871 58.2036Z" fill="#718CCC"/>
<path d="M54.5959 54.9334C54.5959 54.9334 54.261 56.7171 54.4156 57.2729C55.4203 61.0084 56.8887 60.7757 54.2224 64.7051C54.2224 64.7051 53.0244 66.2174 52.5221 64.8214C52.0197 63.4125 53.0244 62.805 52.1743 60.9308C51.1825 58.7593 51.2083 58.7335 51.9682 56.8593L52.1872 54.7654L54.5959 54.9334Z" fill="#FFB27D"/>
<path d="M54.1967 59.7417C52.8313 60.0131 51.3372 59.8968 51.3372 59.8968C51.3372 59.8968 47.2668 47.2686 46.7387 46.1182C46.2106 44.9679 34.6437 31.3186 34.6437 31.3186L39.4611 19.2074C39.4611 19.2074 51.9812 40.1855 53.2435 43.1325C55.3431 48.0054 56.0773 58.9274 56.0773 58.9274C56.0773 58.9274 55.2658 59.5349 54.1967 59.7417Z" fill="#718CCC"/>
<path d="M38.0183 11.6331C38.0183 11.6331 37.2712 11.5038 37.3871 10.4698C37.503 9.43572 37.5031 8.07855 36.6658 8.33706C35.8286 8.59557 35.7899 9.2677 35.4421 8.86701C35.0944 8.47924 35.0943 6.81185 32.5955 6.69552C30.0966 6.57919 29.0919 7.45812 27.9197 6.9411C26.7604 6.42409 26.696 4.66622 26.696 4.66622C26.696 4.66622 27.031 5.29957 27.5204 5.49345C27.5204 5.49345 25.5883 2.8308 27.8296 1.0083C30.0708 -0.814192 32.3507 0.374955 33.6517 0.452508C36.5112 0.620539 38.3532 0.801494 39.2935 2.68862C40.2338 4.58866 39.8474 9.81056 38.0183 11.6331Z" fill="#4F659B"/>
<path d="M52.4706 59.9744C52.4706 59.9744 52.4191 61.0601 52.2001 61.2798C51.5174 62.0166 51.4273 62.5724 51.2212 62.4948C50.7832 62.3397 51.028 61.4867 51.3886 60.8792C51.7493 60.2717 52.4706 59.9744 52.4706 59.9744Z" fill="#FFB27D"/>
</svg>
