<svg width="28" height="28" viewBox="0 0 28 28" fill="none" xmlns="http://www.w3.org/2000/svg">
<rect x="0.85" y="0.85" width="26.3" height="26.3" rx="3.15" fill="#0F8012" stroke="#0F8012" stroke-width="1.7"/>
<path d="M14 6.63325C15.5858 6.63325 17.133 7.14816 18.3985 8.09038L16.386 9.738C15.6598 9.33041 14.8397 9.116 14 9.116C12.0646 9.116 10.3272 10.257 9.54516 11.9968L7.58113 10.3888C8.84622 8.14897 11.2493 6.63325 14 6.63325Z" fill="white"/>
<path d="M6.63325 14C6.63325 12.9192 6.86725 11.8921 7.28713 10.9665L9.31272 12.6249C9.18231 13.0702 9.116 13.5317 9.116 14C9.116 14.5134 9.19491 15.0163 9.35044 15.4981L7.33756 17.1458C6.87628 16.1684 6.63325 15.089 6.63325 14Z" fill="white"/>
<path d="M14 21.3668C11.3734 21.3668 8.95966 19.9751 7.63859 17.7178L9.59719 16.1145C9.95669 16.864 10.4999 17.5081 11.1875 17.9933C12.0133 18.576 12.9859 18.884 14 18.884C14.7945 18.884 15.5753 18.6904 16.2724 18.3234L18.2991 19.9826C17.0528 20.878 15.5434 21.3668 14 21.3668Z" fill="white"/>
<path d="M21.2057 15.5384C20.8735 17.103 20.0248 18.5314 18.8083 19.581L16.8422 17.9714C17.6271 17.4084 18.2344 16.6211 18.5739 15.7153C18.6103 15.6181 18.5968 15.5091 18.5376 15.4238C18.4785 15.3385 18.3812 15.2876 18.2774 15.2876H14.4855V12.8813H21.2822C21.3383 13.2494 21.3668 13.6246 21.3668 14C21.3668 14.5187 21.3126 15.0363 21.2057 15.5384Z" fill="white"/>
</svg>
