<svg width="20" height="17" viewBox="0 0 20 17" fill="none" xmlns="http://www.w3.org/2000/svg">
<path d="M10.006 15.1705C10.006 15.5475 9.80245 15.89 9.48387 16.0498C9.36069 16.1122 9.2287 16.1423 9.09757 16.1423C8.88992 16.1423 8.68419 16.0659 8.51802 15.9185L3.55274 11.5161H0.908231C0.406716 11.5166 0 11.0812 0 10.5446V6.67285C0 6.13601 0.406716 5.70083 0.908231 5.70083H3.55296L8.51824 1.29847C8.78953 1.05788 9.16572 1.00659 9.48408 1.1676C9.80245 1.32745 10.0062 1.67016 10.0062 2.04692L10.006 15.1705ZM13.4964 13.652C13.4743 13.6536 13.453 13.6545 13.4311 13.6545C13.1912 13.6545 12.9599 13.5531 12.789 13.37L12.6675 13.2396C12.3489 12.8994 12.3115 12.3605 12.5798 11.9736C13.26 10.9924 13.619 9.82926 13.619 8.60906C13.619 7.29663 13.2114 6.06563 12.4401 5.04899C12.1464 4.66257 12.1735 4.10135 12.5026 3.74944L12.6239 3.61949C12.8053 3.42536 13.0484 3.31956 13.3116 3.33635C13.5678 3.35015 13.807 3.47918 13.9696 3.69171C15.0394 5.09246 15.6046 6.79314 15.6046 8.60929C15.6046 10.3008 15.1048 11.9108 14.1589 13.2647C14.0009 13.4903 13.7593 13.632 13.4964 13.652ZM17.2514 16.6552C17.0872 16.8629 16.8497 16.9876 16.5954 16.9991C16.5829 16.9995 16.5702 17 16.5573 17C16.3168 17 16.0859 16.8983 15.915 16.7155L15.7957 16.5878C15.4623 16.2313 15.4397 15.6611 15.7428 15.2752C17.2076 13.4112 18.0146 11.0439 18.0146 8.60906C18.0146 6.07644 17.1506 3.63835 15.5824 1.744C15.2645 1.35942 15.2806 0.777272 15.619 0.413858L15.7381 0.286203C15.9148 0.0962163 16.1444 -0.00843744 16.4077 0.000532891C16.6577 0.00812317 16.8942 0.126347 17.0603 0.326455C18.9559 2.60998 20 5.55179 20 8.60906C20.0004 11.5506 19.0243 14.4083 17.2514 16.6552Z" fill="black"/>
</svg>
