<svg width="256" height="166" viewBox="0 0 256 166" fill="none" xmlns="http://www.w3.org/2000/svg">
<path d="M251.143 162.575C243.903 147.514 243.003 134.5 244.089 122.959C244.633 117.169 245.677 111.748 246.657 106.664C246.733 106.267 246.809 105.872 246.885 105.479C247.858 100.408 248.717 95.693 248.933 91.198L79.4103 86.2638C79.0505 124.52 115.76 156.733 162.352 158.089C168.119 158.257 173.806 156.586 179.921 154.457C181.019 154.075 182.131 153.678 183.258 153.275C188.365 151.452 193.788 149.515 199.671 148.33C206.886 146.878 214.827 146.544 223.886 148.868C232.016 150.954 241.003 155.17 251.143 162.575Z" fill="#EA051C" stroke="#EA051C" stroke-width="2"/>
<path d="M80.4764 76.701L250.002 81.6353C250.361 43.379 213.652 11.1659 167.06 9.80979C120.467 8.45363 82.124 38.4822 80.4764 76.701Z" fill="#0F8012" stroke="#0F8012" stroke-width="2"/>
<path d="M131.103 53.1401C131.103 81.5556 103.288 104.98 68.4496 104.98C64.2598 104.98 60.1386 103.648 55.6277 101.933C54.825 101.628 54.0098 101.31 53.1812 100.988C49.411 99.5194 45.3631 97.943 40.9604 96.9243C35.5479 95.6719 29.5519 95.2444 22.6616 96.7994C16.9467 98.0891 10.6655 100.731 3.62721 105.33C8.54433 94.9509 9.34667 85.7901 8.79136 77.5859C8.49707 73.2381 7.8208 69.1564 7.19107 65.3556C7.1416 65.057 7.09242 64.7602 7.04373 64.4651C6.37035 60.3835 5.79631 56.6586 5.79631 53.1401C5.79631 24.7246 33.6113 1.3 68.4496 1.3C103.288 1.3 131.103 24.7246 131.103 53.1401Z" fill="white" stroke="#0F8012" stroke-width="2.6"/>
<path d="M29.8112 59.8317C29.7096 59.8317 29.6264 59.7972 29.5617 59.728C29.5062 59.6588 29.4785 59.5699 29.4785 59.4612V49.8277C29.4785 49.719 29.5109 49.6301 29.5756 49.5609C29.6403 49.4917 29.7234 49.4572 29.8251 49.4572H31.0728C31.1745 49.4572 31.2531 49.4917 31.3085 49.5609C31.3732 49.6301 31.4056 49.719 31.4056 49.8277V56.6304L35.9667 49.6943C36.0684 49.5362 36.2024 49.4572 36.3688 49.4572H37.5194C37.6211 49.4572 37.6997 49.4917 37.7551 49.5609C37.8198 49.6301 37.8522 49.719 37.8522 49.8277V59.476C37.8522 59.5748 37.8198 59.6588 37.7551 59.728C37.6997 59.7972 37.6211 59.8317 37.5194 59.8317H36.2717C36.17 59.8317 36.0869 59.8021 36.0222 59.7428C35.9575 59.6736 35.9251 59.5847 35.9251 59.476V52.8067L31.3778 59.5946C31.3224 59.6736 31.2669 59.7329 31.2115 59.7725C31.156 59.812 31.0775 59.8317 30.9758 59.8317H29.8112Z" fill="#0F8012"/>
<path d="M42.9646 59.9799C41.9479 59.9799 41.1346 59.6786 40.5246 59.0759C39.9238 58.4732 39.605 57.6383 39.568 56.5712L39.5541 55.9783L39.568 55.3855C39.605 54.3184 39.9238 53.4835 40.5246 52.8808C41.1346 52.2781 41.9479 51.9767 42.9646 51.9767C43.6855 51.9767 44.2955 52.115 44.7946 52.3917C45.3029 52.6683 45.6773 53.0092 45.9176 53.4143C46.1671 53.8095 46.3011 54.185 46.3196 54.5407C46.3289 54.6395 46.2965 54.7235 46.2226 54.7927C46.1579 54.8618 46.0793 54.8964 45.9869 54.8964H44.7669C44.6745 54.8964 44.6005 54.8766 44.5451 54.8371C44.4988 54.7877 44.4526 54.7087 44.4064 54.6C44.2678 54.2146 44.0829 53.938 43.8519 53.77C43.6301 53.602 43.3435 53.5181 42.9923 53.5181C42.521 53.5181 42.1513 53.6811 41.8832 54.0072C41.6152 54.3233 41.472 54.8075 41.4535 55.4596L41.4396 56.008L41.4535 56.4971C41.4904 57.7914 42.0034 58.4386 42.9923 58.4386C43.3528 58.4386 43.6439 58.3546 43.8657 58.1866C44.0876 58.0187 44.2678 57.742 44.4064 57.3567C44.4526 57.248 44.4988 57.1739 44.5451 57.1343C44.6005 57.0849 44.6745 57.0602 44.7669 57.0602H45.9869C46.0793 57.0602 46.1579 57.0948 46.2226 57.164C46.2965 57.2332 46.3289 57.3171 46.3196 57.4159C46.3011 57.7618 46.1717 58.1323 45.9314 58.5275C45.6911 58.9227 45.3214 59.2636 44.8223 59.5501C44.3232 59.8367 43.704 59.9799 42.9646 59.9799Z" fill="#0F8012"/>
<path d="M50.8293 51.9767C51.8552 51.9767 52.6686 52.2978 53.2693 52.94C53.8793 53.5724 54.2028 54.4666 54.2398 55.6226C54.249 55.6819 54.2536 55.8054 54.2536 55.9931C54.2536 56.1809 54.249 56.3044 54.2398 56.3637C54.1936 57.49 53.8654 58.3744 53.2554 59.0166C52.6547 59.6588 51.846 59.9799 50.8293 59.9799C49.7387 59.9799 48.893 59.6242 48.2923 58.9128C47.7007 58.2014 47.405 57.2529 47.405 56.0672V55.756C47.405 55.6572 47.4373 55.5732 47.502 55.5041C47.5667 55.4349 47.6499 55.4003 47.7516 55.4003H52.3543V55.2817C52.3358 54.7383 52.1926 54.2838 51.9245 53.9182C51.6657 53.5428 51.3053 53.355 50.8432 53.355C50.2979 53.355 49.8588 53.5823 49.5261 54.0368C49.4429 54.1455 49.3736 54.2146 49.3182 54.2443C49.272 54.2739 49.198 54.2887 49.0963 54.2887H47.9041C47.8209 54.2887 47.747 54.264 47.6823 54.2146C47.6268 54.1554 47.5991 54.0862 47.5991 54.0072C47.5991 53.77 47.7285 53.4934 47.9873 53.1772C48.2553 52.8511 48.6342 52.5695 49.1241 52.3324C49.6139 52.0953 50.1823 51.9767 50.8293 51.9767ZM49.2904 56.6453V56.6897C49.2904 57.2727 49.4245 57.742 49.6925 58.0977C49.9698 58.4534 50.3487 58.6313 50.8293 58.6313C51.3099 58.6313 51.6842 58.4534 51.9523 58.0977C52.2203 57.742 52.3543 57.2727 52.3543 56.6897V56.6453H49.2904Z" fill="#0F8012"/>
<path d="M56.0996 59.8317C56.0071 59.8317 55.9286 59.7972 55.8639 59.728C55.7992 59.6588 55.7668 59.5748 55.7668 59.476V52.4806C55.7668 52.3818 55.7992 52.2978 55.8639 52.2286C55.9286 52.1595 56.0071 52.1249 56.0996 52.1249H57.2502C57.3519 52.1249 57.4305 52.1595 57.4859 52.2286C57.5506 52.2879 57.583 52.3719 57.583 52.4806V55.1335H60.7162V52.4806C60.7162 52.3719 60.7485 52.2879 60.8132 52.2286C60.8779 52.1595 60.9565 52.1249 61.0489 52.1249H62.1996C62.3012 52.1249 62.3798 52.1595 62.4352 52.2286C62.4999 52.2879 62.5323 52.3719 62.5323 52.4806V59.476C62.5323 59.5748 62.4999 59.6588 62.4352 59.728C62.3798 59.7972 62.3012 59.8317 62.1996 59.8317H61.0489C60.9565 59.8317 60.8779 59.7972 60.8132 59.728C60.7485 59.6588 60.7162 59.5748 60.7162 59.476V56.6897H57.583V59.476C57.583 59.5748 57.5506 59.6588 57.4859 59.728C57.4305 59.7972 57.3519 59.8317 57.2502 59.8317H56.0996Z" fill="#0F8012"/>
<path d="M71.988 52.1249C72.0619 52.1249 72.1266 52.1545 72.182 52.2138C72.2467 52.2731 72.2791 52.3373 72.2791 52.4065V59.5205C72.2791 59.6094 72.2514 59.6835 72.1959 59.7428C72.1405 59.8021 72.0665 59.8317 71.9741 59.8317H70.7818C70.6894 59.8317 70.6154 59.8021 70.56 59.7428C70.5138 59.6835 70.4907 59.6094 70.4907 59.5205V55.3707L69.0073 58.2904C68.9426 58.4089 68.8779 58.4979 68.8132 58.5571C68.7577 58.6164 68.6745 58.6461 68.5636 58.6461H68.1061C68.0045 58.6461 67.9213 58.6164 67.8566 58.5571C67.7919 58.4979 67.7318 58.4089 67.6764 58.2904L66.1929 55.4299V59.5205C66.1929 59.6094 66.1652 59.6835 66.1098 59.7428C66.0543 59.8021 65.985 59.8317 65.9018 59.8317H64.7095C64.6171 59.8317 64.5432 59.8021 64.4877 59.7428C64.4323 59.6835 64.4045 59.6094 64.4045 59.5205V52.4065C64.4045 52.3373 64.4323 52.2731 64.4877 52.2138C64.5432 52.1545 64.6079 52.1249 64.6818 52.1249H65.8464C66.0035 52.1249 66.1236 52.2089 66.2068 52.3769L68.3418 56.5267L70.4768 52.3769C70.56 52.2089 70.6801 52.1249 70.8373 52.1249H71.988Z" fill="#0F8012"/>
<path d="M77.2579 59.9799C76.232 59.9799 75.414 59.6638 74.804 59.0314C74.2032 58.3892 73.8844 57.49 73.8474 56.334L73.8335 55.9635L73.8474 55.593C73.8936 54.4666 74.2171 53.5823 74.8179 52.94C75.4279 52.2978 76.2412 51.9767 77.2579 51.9767C78.3485 51.9767 79.1895 52.3324 79.7811 53.0438C80.3818 53.7552 80.6822 54.7037 80.6822 55.8894V56.2006C80.6822 56.2994 80.6498 56.3834 80.5852 56.4526C80.5205 56.5218 80.4373 56.5563 80.3356 56.5563H75.7329V56.6749C75.7514 57.2183 75.89 57.6778 76.1488 58.0532C76.4168 58.4188 76.7819 58.6016 77.244 58.6016C77.7893 58.6016 78.2283 58.3744 78.5611 57.9199C78.6442 57.8112 78.7089 57.742 78.7551 57.7124C78.8106 57.6827 78.8892 57.6679 78.9908 57.6679H80.1831C80.2663 57.6679 80.3356 57.6975 80.3911 57.7568C80.4558 57.8062 80.4881 57.8704 80.4881 57.9495C80.4881 58.1866 80.3541 58.4682 80.0861 58.7943C79.8273 59.1105 79.453 59.3871 78.9631 59.6242C78.4733 59.8614 77.9048 59.9799 77.2579 59.9799ZM78.7967 55.3114V55.2669C78.7967 54.684 78.6581 54.2146 78.3808 53.8589C78.1128 53.5032 77.7385 53.3254 77.2579 53.3254C76.7773 53.3254 76.403 53.5032 76.1349 53.8589C75.8669 54.2146 75.7329 54.684 75.7329 55.2669V55.3114H78.7967Z" fill="#0F8012"/>
<path d="M85.2731 59.9799C84.2565 59.9799 83.4431 59.6786 82.8331 59.0759C82.2324 58.4732 81.9135 57.6383 81.8765 56.5712L81.8627 55.9783L81.8765 55.3855C81.9135 54.3184 82.2324 53.4835 82.8331 52.8808C83.4431 52.2781 84.2565 51.9767 85.2731 51.9767C85.994 51.9767 86.604 52.115 87.1031 52.3917C87.6115 52.6683 87.9858 53.0092 88.2261 53.4143C88.4756 53.8095 88.6096 54.185 88.6281 54.5407C88.6374 54.6395 88.605 54.7235 88.5311 54.7927C88.4664 54.8618 88.3878 54.8964 88.2954 54.8964H87.0754C86.983 54.8964 86.909 54.8766 86.8536 54.8371C86.8074 54.7877 86.7612 54.7087 86.715 54.6C86.5763 54.2146 86.3915 53.938 86.1604 53.77C85.9386 53.602 85.6521 53.5181 85.3009 53.5181C84.8295 53.5181 84.4598 53.6811 84.1918 54.0072C83.9237 54.3233 83.7805 54.8075 83.762 55.4596L83.7481 56.008L83.762 56.4971C83.799 57.7914 84.3119 58.4386 85.3009 58.4386C85.6613 58.4386 85.9524 58.3546 86.1743 58.1866C86.3961 58.0187 86.5763 57.742 86.715 57.3567C86.7612 57.248 86.8074 57.1739 86.8536 57.1343C86.909 57.0849 86.983 57.0602 87.0754 57.0602H88.2954C88.3878 57.0602 88.4664 57.0948 88.5311 57.164C88.605 57.2332 88.6374 57.3171 88.6281 57.4159C88.6096 57.7618 88.4803 58.1323 88.2399 58.5275C87.9996 58.9227 87.63 59.2636 87.1309 59.5501C86.6318 59.8367 86.0125 59.9799 85.2731 59.9799Z" fill="#0F8012"/>
<path d="M93.1794 59.9799C92.1535 59.9799 91.3355 59.6638 90.7255 59.0314C90.1248 58.3892 89.8059 57.49 89.769 56.334L89.7551 55.9635L89.769 55.593C89.8152 54.4666 90.1387 53.5823 90.7394 52.94C91.3494 52.2978 92.1627 51.9767 93.1794 51.9767C94.27 51.9767 95.1111 52.3324 95.7026 53.0438C96.3034 53.7552 96.6037 54.7037 96.6037 55.8894V56.2006C96.6037 56.2994 96.5714 56.3834 96.5067 56.4526C96.442 56.5218 96.3588 56.5563 96.2571 56.5563H91.6544V56.6749C91.6729 57.2183 91.8115 57.6778 92.0703 58.0532C92.3384 58.4188 92.7034 58.6016 93.1656 58.6016C93.7109 58.6016 94.1499 58.3744 94.4826 57.9199C94.5658 57.8112 94.6305 57.742 94.6767 57.7124C94.7321 57.6827 94.8107 57.6679 94.9124 57.6679H96.1047C96.1878 57.6679 96.2571 57.6975 96.3126 57.7568C96.3773 57.8062 96.4097 57.8704 96.4097 57.9495C96.4097 58.1866 96.2756 58.4682 96.0076 58.7943C95.7488 59.1105 95.3745 59.3871 94.8846 59.6242C94.3948 59.8614 93.8264 59.9799 93.1794 59.9799ZM94.7183 55.3114V55.2669C94.7183 54.684 94.5797 54.2146 94.3024 53.8589C94.0343 53.5032 93.66 53.3254 93.1794 53.3254C92.6988 53.3254 92.3245 53.5032 92.0565 53.8589C91.7884 54.2146 91.6544 54.684 91.6544 55.2669V55.3114H94.7183Z" fill="#0F8012"/>
<path d="M100.848 59.9799C100.109 59.9799 99.5079 59.8663 99.0458 59.6391C98.5929 59.4019 98.2602 59.1154 98.0476 58.7795C97.8443 58.4435 97.7334 58.1125 97.7149 57.7865V57.742C97.7149 57.6728 97.738 57.6185 97.7842 57.579C97.8397 57.5296 97.8997 57.5049 97.9644 57.5049H99.1013C99.1937 57.5049 99.263 57.5246 99.3092 57.5641C99.3647 57.6037 99.4109 57.6679 99.4478 57.7568C99.5403 58.0434 99.7066 58.2508 99.9469 58.3793C100.196 58.4979 100.52 58.5571 100.917 58.5571C101.324 58.5571 101.648 58.4732 101.888 58.3052C102.128 58.1372 102.248 57.8803 102.248 57.5345C102.248 56.8626 101.874 56.5267 101.125 56.5267H100.363C100.27 56.5267 100.196 56.4971 100.141 56.4378C100.086 56.3785 100.058 56.2994 100.058 56.2006V55.5782C100.058 55.4892 100.086 55.4151 100.141 55.3558C100.196 55.2867 100.27 55.2521 100.363 55.2521H101.07C101.403 55.2521 101.652 55.1879 101.819 55.0594C101.985 54.9211 102.068 54.7087 102.068 54.4221C102.068 54.1356 101.971 53.8985 101.777 53.7107C101.583 53.5131 101.269 53.4143 100.834 53.4143C100.418 53.4143 100.118 53.4835 99.9331 53.6218C99.7482 53.7601 99.605 53.9874 99.5033 54.3036C99.4571 54.3925 99.4063 54.4567 99.3508 54.4962C99.3046 54.5358 99.2353 54.5555 99.1429 54.5555H98.0476C97.9737 54.5555 97.909 54.5308 97.8535 54.4814C97.7981 54.4221 97.775 54.353 97.7842 54.2739C97.8027 53.8787 97.9182 53.5082 98.1308 53.1624C98.3526 52.8165 98.69 52.5349 99.1429 52.3176C99.5957 52.0903 100.164 51.9767 100.848 51.9767C101.865 51.9767 102.613 52.1891 103.094 52.614C103.584 53.0389 103.829 53.5526 103.829 54.1554C103.829 54.5407 103.759 54.8618 103.621 55.1187C103.491 55.3756 103.27 55.588 102.955 55.756C103.695 56.0623 104.064 56.7095 104.064 57.6975C104.064 58.4089 103.769 58.9672 103.177 59.3723C102.595 59.7774 101.819 59.9799 100.848 59.9799Z" fill="#0F8012"/>
<path d="M105.869 56.9565C105.776 56.9565 105.698 56.9219 105.633 56.8527C105.569 56.7836 105.536 56.6996 105.536 56.6008V49.8129C105.536 49.714 105.569 49.6301 105.633 49.5609C105.698 49.4917 105.776 49.4572 105.869 49.4572H106.992C107.094 49.4572 107.172 49.4917 107.228 49.5609C107.292 49.6202 107.325 49.7042 107.325 49.8129V56.6008C107.325 56.6996 107.292 56.7836 107.228 56.8527C107.172 56.9219 107.094 56.9565 106.992 56.9565H105.869ZM105.786 59.8317C105.693 59.8317 105.615 59.7972 105.55 59.728C105.485 59.6588 105.453 59.5748 105.453 59.476V58.0977C105.453 57.989 105.485 57.9001 105.55 57.8309C105.615 57.7618 105.693 57.7272 105.786 57.7272H107.075C107.177 57.7272 107.26 57.7618 107.325 57.8309C107.389 57.9001 107.422 57.989 107.422 58.0977V59.476C107.422 59.5748 107.389 59.6588 107.325 59.728C107.26 59.7972 107.177 59.8317 107.075 59.8317H105.786Z" fill="#0F8012"/>
</svg>
