<svg width="54" height="54" viewBox="0 0 54 54" fill="none" xmlns="http://www.w3.org/2000/svg">
<path d="M26.0849 44.8459L26.0292 44.846C25.8157 44.846 25.608 44.9091 25.4285 45.0284C24.5373 45.6199 23.4997 45.9326 22.4274 45.9326C20.9284 45.9326 19.4815 45.3041 18.4576 44.2085C17.4192 43.0973 16.9043 41.6466 17.0076 40.1234C17.1932 37.3876 19.3994 35.2173 22.1394 35.0749C22.235 35.0699 22.3319 35.0674 22.4274 35.0674C23.4948 35.0674 24.5285 35.3775 25.417 35.9641C25.605 36.0884 25.8168 36.1539 26.0295 36.1539H26.1018L26.1198 26.1864L44.0209 20.9258L54.0002 27.0445L53.9535 51.2837L50.8546 53.6982L26.0663 53.2173L26.0849 44.8459Z" fill="#B9E7ED"/>
<path d="M43.7346 28.1155V28.1339C43.7346 28.5661 43.867 28.9862 44.1053 29.3467C44.5968 30.0902 44.8647 30.9943 44.8154 31.9632C44.7049 34.138 42.9587 35.92 40.7865 36.0713C38.2455 36.2484 36.129 34.2393 36.129 31.7361C36.129 30.8492 36.3944 30.0243 36.8511 29.3372C37.0882 28.9805 37.2155 28.5624 37.2155 28.1341V28.1019C37.2155 27.5026 36.7302 27.0164 36.1308 27.0154L27 27L24.0757 12.8267L27.05 0H50.7405C52.5407 0 54 1.4593 54 3.25956V27.0445L44.823 27.029C44.2222 27.028 43.7346 27.5147 43.7346 28.1155Z" fill="#94CCD4"/>
<path d="M0 26.9555V3.25956C0 1.4593 1.4593 0 3.25956 0H9.28974H13.0926H27.05L27.0335 9.15197C27.0324 9.75281 27.5191 10.2404 28.12 10.2404H28.1755C28.6033 10.2404 29.0209 10.1134 29.3773 9.87678C30.0651 9.42023 30.8902 9.15392 31.7773 9.15392C34.2777 9.15392 36.2852 11.2658 36.1131 13.803C35.9656 15.9769 34.1849 17.7269 32.009 17.8401C31.0379 17.8906 30.1319 17.6215 29.3863 17.1293C29.0261 16.8915 28.6066 16.7597 28.1751 16.7597H28.1028C27.5035 16.7597 27.0174 17.2449 27.0163 17.8442L27.0131 28.8059L0 26.9555Z" fill="#B9E7ED"/>
<path d="M27.0001 26.9999L26.9827 36.1842V36.1962C26.9479 36.7645 26.4753 37.2154 25.8984 37.2154H25.8658C25.4377 37.2154 25.0194 37.0882 24.663 36.8514C23.9763 36.3939 23.1506 36.1288 22.264 36.1288C19.7606 36.1288 17.7516 38.2454 17.9287 40.7867C18.0798 42.9587 19.8617 44.7047 22.0369 44.8156C23.006 44.8644 23.91 44.5961 24.6532 44.105C25.0139 43.867 25.4344 43.7345 25.8658 43.7345H25.8842C26.4536 43.7345 26.9219 44.1745 26.9675 44.733V44.7352L26.9552 51.2836L26.0177 53.2174L5.02524 53.2665C3.22488 53.2665 1.76568 51.8073 1.76568 50.0069L1.11279 28.26L1.88281 26.9612L9.15184 26.9706C9.75269 26.9717 10.2405 26.4849 10.2405 25.884V25.8743C10.2405 25.4429 10.1091 25.0235 9.87112 24.6639C9.37675 23.9164 9.10838 23.0069 9.16053 22.0334C9.27788 19.8571 11.0315 18.0807 13.2056 17.9373C15.7394 17.7699 17.8462 19.7756 17.8462 22.2735C17.8462 23.1601 17.58 23.9848 17.1236 24.6726C16.8868 25.029 16.7596 25.4462 16.7596 25.8743V25.8982C16.7596 26.4968 17.2453 26.9836 17.844 26.9847L27.0001 26.9999Z" fill="#94CCD4"/>
<path d="M53.9534 51.2837C53.6959 52.8255 52.3562 54 50.7406 54H26.9556L25.5737 52.3852L26.9599 51.2837H53.9534Z" fill="#94CCD4"/>
<path d="M2.7163 0.0480957V26.9623L2.6674 27.0416L1.57763 28.8072L0.0760563 27.0459L0 26.9568V3.26093C0 1.64528 1.17453 0.305601 2.7163 0.0480957Z" fill="#94CCD4"/>
<path d="M26.9554 51.2838L26.95 54.0001H3.25956C1.4593 54.0001 0 52.5408 0 50.7405V26.9556L2.71641 26.961V49.1108C2.71641 50.3109 3.68928 51.2838 4.88944 51.2838H26.9554Z" fill="#6FBBC6"/>
<path d="M9.06432 35.3391H6.60249C6.38605 35.3391 6.17864 35.4252 6.02576 35.5784C5.87289 35.7315 5.78716 35.9391 5.7876 36.1556V36.1628V36.1631V44.705C5.7876 44.765 5.79455 44.8233 5.80683 44.8796C5.81531 45.0846 5.89984 45.2795 6.04597 45.4246C6.19863 45.5762 6.40507 45.6611 6.62009 45.6611H6.62313C6.69745 45.6608 8.45098 45.6541 9.15048 45.6419C11.6066 45.5989 13.3892 43.4365 13.3892 40.5002C13.3893 37.4132 11.6512 35.3391 9.06432 35.3391ZM9.12213 44.0122C8.73739 44.019 8.00594 44.024 7.43226 44.0273C7.42889 43.0085 7.42368 41.3013 7.42368 40.4905C7.42368 39.8108 7.42075 38.0253 7.4189 36.9689H9.06432C11.0516 36.9689 11.7595 38.7929 11.7595 40.5001C11.7595 42.1694 10.9342 43.9805 9.12213 44.0122Z" fill="#FAF8F8"/>
<path d="M18.3676 4.02453C17.926 3.9362 17.4972 4.22326 17.4093 4.66471L16.1924 10.7793L14.2788 4.5679C14.1464 4.13775 13.6901 3.89654 13.2602 4.02899C12.9631 4.12058 12.7563 4.36646 12.7003 4.65156L10.8036 10.7796L9.59103 4.64972C9.50378 4.20826 9.07526 3.92099 8.63348 4.00845C8.19202 4.09581 7.90486 4.52444 7.99221 4.966L9.68577 13.5277C9.69348 13.5666 9.70402 13.605 9.71739 13.6424C9.86059 14.0455 10.2428 14.315 10.67 14.315H10.6769C11.1069 14.312 11.4888 14.0365 11.6273 13.6294C11.6297 13.6223 11.6319 13.615 11.6342 13.608L13.5008 7.57778L15.3589 13.6095C15.3623 13.6206 15.366 13.6315 15.3699 13.6424C15.5131 14.0455 15.8953 14.315 16.3226 14.315H16.3294C16.7594 14.312 17.1414 14.0365 17.2798 13.6294C17.2913 13.5955 17.3005 13.561 17.3075 13.526L19.0078 4.98284C19.0957 4.54139 18.8091 4.11243 18.3676 4.02453Z" fill="#FAF8F8"/>
<path d="M43.6648 42.7589C43.6648 41.064 42.2285 39.6851 40.463 39.6851H38.1532C38.1527 39.6851 38.1522 39.6852 38.1518 39.6852C38.1513 39.6852 38.1509 39.6851 38.1503 39.6851C37.7002 39.6851 37.3354 40.0498 37.3354 40.4999V49.1921C37.3354 49.6422 37.7002 50.007 38.1503 50.007C38.6005 50.007 38.9652 49.6422 38.9652 49.1921V46.0119L42.238 49.7305C42.3991 49.9135 42.6241 50.007 42.8501 50.007C43.0413 50.007 43.2333 49.9401 43.3881 49.8038C43.7259 49.5065 43.7587 48.9915 43.4615 48.6537L40.9477 45.7976C42.484 45.5726 43.6648 44.2957 43.6648 42.7589ZM40.463 44.203C40.1212 44.203 39.493 44.2058 38.9796 44.2086C38.9769 43.7038 38.9739 43.0905 38.9739 42.7589C38.9739 42.4796 38.9722 41.8421 38.9707 41.3148H40.463C41.3152 41.3148 42.035 41.9762 42.035 42.7589C42.035 43.5417 41.3152 44.203 40.463 44.203Z" fill="#FAF8F8"/>
<path d="M44.846 8.33911C42.0003 8.33911 39.6851 10.6544 39.6851 13.5001C39.6851 16.3458 42.0003 18.661 44.846 18.661C47.6917 18.661 50.007 16.3458 50.007 13.5001C50.007 10.6544 47.6917 8.33911 44.846 8.33911ZM44.846 17.0313C42.8989 17.0313 41.3148 15.4472 41.3148 13.5001C41.3148 11.5529 42.8989 9.96889 44.846 9.96889C46.7932 9.96889 48.3772 11.5529 48.3772 13.5001C48.3772 15.4472 46.7932 17.0313 44.846 17.0313Z" fill="#FAF8F8"/>
</svg>
