<svg width="54" height="54" viewBox="0 0 54 54" fill="none" xmlns="http://www.w3.org/2000/svg">
<path d="M26.0849 44.8459L26.0292 44.846C25.8157 44.846 25.608 44.9091 25.4285 45.0284C24.5373 45.6199 23.4997 45.9326 22.4274 45.9326C20.9284 45.9326 19.4815 45.3041 18.4576 44.2085C17.4192 43.0973 16.9043 41.6466 17.0076 40.1234C17.1932 37.3876 19.3994 35.2173 22.1394 35.0749C22.235 35.0699 22.3319 35.0674 22.4274 35.0674C23.4948 35.0674 24.5285 35.3775 25.417 35.9641C25.605 36.0884 25.8168 36.1539 26.0295 36.1539H26.1018L26.1198 26.1864L44.0209 20.9258L54.0002 27.0445L53.9535 51.2837L50.8546 53.6982L26.0663 53.2173L26.0849 44.8459Z" fill="#B9E7ED"/>
<path d="M43.7346 28.1155V28.1339C43.7346 28.5661 43.867 28.9862 44.1053 29.3467C44.5968 30.0902 44.8647 30.9943 44.8154 31.9632C44.7049 34.138 42.9587 35.92 40.7865 36.0713C38.2455 36.2484 36.129 34.2393 36.129 31.7361C36.129 30.8492 36.3944 30.0243 36.8511 29.3372C37.0882 28.9805 37.2155 28.5624 37.2155 28.1341V28.1019C37.2155 27.5026 36.7302 27.0164 36.1308 27.0154L27 27L24.0757 12.8267L27.05 0H50.7405C52.5407 0 54 1.4593 54 3.25956V27.0445L44.823 27.029C44.2222 27.028 43.7346 27.5147 43.7346 28.1155Z" fill="#94CCD4"/>
<path d="M0 26.9555V3.25956C0 1.4593 1.4593 0 3.25956 0H9.28974H13.0926H27.05L27.0335 9.15197C27.0324 9.75281 27.5191 10.2404 28.12 10.2404H28.1755C28.6033 10.2404 29.0209 10.1134 29.3773 9.87678C30.0651 9.42023 30.8902 9.15392 31.7773 9.15392C34.2777 9.15392 36.2852 11.2658 36.1131 13.803C35.9656 15.9769 34.1849 17.7269 32.009 17.8401C31.0379 17.8906 30.1319 17.6215 29.3863 17.1293C29.0261 16.8915 28.6066 16.7597 28.1751 16.7597H28.1028C27.5035 16.7597 27.0174 17.2449 27.0163 17.8442L27.0131 28.8059L0 26.9555Z" fill="#B9E7ED"/>
<path d="M27.0001 26.9999L26.9827 36.1842V36.1962C26.9479 36.7645 26.4753 37.2154 25.8984 37.2154H25.8658C25.4377 37.2154 25.0194 37.0882 24.663 36.8514C23.9763 36.3939 23.1506 36.1288 22.264 36.1288C19.7606 36.1288 17.7516 38.2454 17.9287 40.7867C18.0798 42.9587 19.8617 44.7047 22.0369 44.8156C23.006 44.8644 23.91 44.5961 24.6532 44.105C25.0139 43.867 25.4344 43.7345 25.8658 43.7345H25.8842C26.4536 43.7345 26.9219 44.1745 26.9675 44.733V44.7352L26.9552 51.2836L26.0177 53.2174L5.02524 53.2665C3.22488 53.2665 1.76568 51.8073 1.76568 50.0069L1.11279 28.26L1.88281 26.9612L9.15184 26.9706C9.75269 26.9717 10.2405 26.4849 10.2405 25.884V25.8743C10.2405 25.4429 10.1091 25.0235 9.87112 24.6639C9.37675 23.9164 9.10838 23.0069 9.16053 22.0334C9.27788 19.8571 11.0315 18.0807 13.2056 17.9373C15.7394 17.7699 17.8462 19.7756 17.8462 22.2735C17.8462 23.1601 17.58 23.9848 17.1236 24.6726C16.8868 25.029 16.7596 25.4462 16.7596 25.8743V25.8982C16.7596 26.4968 17.2453 26.9836 17.844 26.9847L27.0001 26.9999Z" fill="#94CCD4"/>
<path d="M53.9534 51.2837C53.6959 52.8255 52.3562 54 50.7406 54H26.9556L25.5737 52.3852L26.9599 51.2837H53.9534Z" fill="#94CCD4"/>
<path d="M2.7163 0.0480957V26.9623L2.6674 27.0416L1.57763 28.8072L0.0760563 27.0459L0 26.9568V3.26093C0 1.64528 1.17453 0.305601 2.7163 0.0480957Z" fill="#94CCD4"/>
<path d="M26.9554 51.2838L26.95 54.0001H3.25956C1.4593 54.0001 0 52.5408 0 50.7405V26.9556L2.71641 26.961V49.1108C2.71641 50.3109 3.68928 51.2838 4.88944 51.2838H26.9554Z" fill="#6FBBC6"/>
<path d="M17.2547 13.2221H7.61224C7.27412 13.2221 7 12.8573 7 12.4072C7 11.957 7.27412 11.5923 7.61224 11.5923H17.2547C17.5928 11.5923 17.8669 11.957 17.8669 12.4072C17.8669 12.8573 17.5928 13.2221 17.2547 13.2221Z" fill="white"/>
<path d="M22.755 13.2216H20.1118C19.7736 13.2216 19.4995 12.8568 19.4995 12.4067C19.4995 11.9565 19.7736 11.5918 20.1118 11.5918H22.755C23.0931 11.5918 23.3673 11.9565 23.3673 12.4067C23.3673 12.8568 23.0931 13.2216 22.755 13.2216Z" fill="white"/>
<path d="M11.449 16.5172H7.61224C7.27412 16.5172 7 16.1525 7 15.7023C7 15.2522 7.27412 14.8875 7.61224 14.8875H11.449C11.7871 14.8875 12.0612 15.2522 12.0612 15.7023C12.0612 16.1525 11.7871 16.5172 11.449 16.5172Z" fill="white"/>
<path d="M24.3875 6.62978H10.061C9.72285 6.62978 9.44873 6.26504 9.44873 5.81489C9.44873 5.36475 9.72285 5 10.061 5H24.3875C24.7256 5 24.9998 5.36475 24.9998 5.81489C24.9998 6.26504 24.7256 6.62978 24.3875 6.62978Z" fill="white"/>
<path d="M24.3878 9.92568H7.61224C7.27412 9.92568 7 9.56093 7 9.11079C7 8.66064 7.27412 8.2959 7.61224 8.2959H24.3878C24.7259 8.2959 25 8.66064 25 9.11079C25 9.56093 24.7259 9.92568 24.3878 9.92568Z" fill="white"/>
<path d="M42.2547 44.2221H32.6122C32.2741 44.2221 32 43.8573 32 43.4072C32 42.957 32.2741 42.5923 32.6122 42.5923H42.2547C42.5928 42.5923 42.8669 42.957 42.8669 43.4072C42.8669 43.8573 42.5928 44.2221 42.2547 44.2221Z" fill="white"/>
<path d="M47.755 44.2216H45.1118C44.7736 44.2216 44.4995 43.8568 44.4995 43.4067C44.4995 42.9565 44.7736 42.5918 45.1118 42.5918H47.755C48.0931 42.5918 48.3673 42.9565 48.3673 43.4067C48.3673 43.8568 48.0931 44.2216 47.755 44.2216Z" fill="white"/>
<path d="M36.449 47.5172H32.6122C32.2741 47.5172 32 47.1525 32 46.7023C32 46.2522 32.2741 45.8875 32.6122 45.8875H36.449C36.7871 45.8875 37.0612 46.2522 37.0612 46.7023C37.0612 47.1525 36.7871 47.5172 36.449 47.5172Z" fill="white"/>
<path d="M49.3878 40.9257H32.6122C32.2741 40.9257 32 40.5609 32 40.1108C32 39.6606 32.2741 39.2959 32.6122 39.2959H49.3878C49.7259 39.2959 50 39.6606 50 40.1108C50 40.5609 49.7259 40.9257 49.3878 40.9257Z" fill="white"/>
</svg>
